<?xml version="1.0" encoding="UTF-8"?>
<svg id="Calque_2" data-name="Calque 2" xmlns="http://www.w3.org/2000/svg" viewBox="0 0 163.54 27.93">
  <defs>
    <style>
      .cls-1 {
        fill: #e5e5e5;
        font-family: MyriadPro-Regular, 'Myriad Pro';
        font-size: 8px;
      }

      .cls-2 {
        fill: #404040;
        font-family: FranklinGothic-Demi, 'Franklin Gothic Demi';
        font-size: 18px;
        font-weight: 300;
      }

      .cls-3 {
        fill: #9e9e9e;
      }

      .cls-3, .cls-4, .cls-5, .cls-6, .cls-7 {
        stroke-width: 0px;
      }

      .cls-4 {
        fill: gray;
      }

      .cls-5 {
        fill: #eb8a00;
      }

      .cls-8 {
        letter-spacing: -.02em;
      }

      .cls-9 {
        fill: #2db400;
      }

      .cls-9, .cls-10 {
        stroke: #2d8000;
        stroke-miterlimit: 10;
        stroke-width: .5px;
      }

      .cls-6 {
        fill: #c9c9c9;
      }

      .cls-10 {
        fill: #2dc800;
      }

      .cls-7 {
        fill: #dfa200;
      }
    </style>
  </defs>
  <g id="Calque_1-2" data-name="Calque 1">
    <g>
      <g>
        <g>
          <path class="cls-4" d="M23.22,21.83c-10.42-6.99-12.56-11.91-13.38-13.08C8.24,1.89,4.25,2.93,1.72,3.51,8.1,8.04,4.02,10.73,0,7.49c-.13,3.24,1.2,4.08,2.17,4.37,1.81.19,2.65.39,4.27.91,9.39,6.73,13.08,13.98,13.08,13.98,4.66,3.82,7.64-2.65,3.69-4.92ZM21.92,26.6c-1.03,0-1.87-.84-1.87-1.87s.84-1.87,1.87-1.87,1.87.84,1.87,1.87-.84,1.87-1.87,1.87Z"/>
          <g>
            <g>
              <g>
                <path class="cls-7" d="M.83,27.24s1.63,1.47,3.8-.71,6.79-6.79,6.79-6.79c0,0,.24-.03.3-.95.54-.71.54-1.09,1.83-1.16,1.05-.8,1.97-1.89.91-3.11l-.52-.57"/>
                <path class="cls-7" d="M.83,27.24s-1.47-1.63.71-3.8l6.79-6.79s.03-.24.95-.3c.71-.54,1.09-.54,1.16-1.83.8-1.05,1.89-1.97,3.11-.91l.57.52"/>
              </g>
              <rect class="cls-5" x="1.7" y="22.12" width="10.14" height="1.1" rx=".45" ry=".45" transform="translate(-14.05 11.42) rotate(-45)"/>
              <rect class="cls-5" x=".31" y="20.74" width="10.14" height="1.1" rx=".45" ry=".45" transform="translate(-13.48 10.04) rotate(-45)"/>
            </g>
            <rect class="cls-3" x="11.93" y="8.67" width="14.76" height=".54" transform="translate(-.67 16.27) rotate(-45)"/>
            <rect class="cls-6" x="11.56" y="8.34" width="14.76" height=".49" transform="translate(-.52 15.91) rotate(-45)"/>
          </g>
        </g>
        <g>
          <rect class="cls-9" x="33.72" y="8.66" width="53.39" height="13.15"/>
          <text class="cls-1" transform="translate(36.47 17.19)"><tspan x="0" y="0">malesuada</tspan></text>
          <polygon class="cls-10" points="122.84 15.23 126.15 8.91 122.84 2.59 80.85 2.59 80.85 15.23 122.84 15.23"/>
        </g>
      </g>
      <text class="cls-2" transform="translate(130.31 15)"><tspan class="cls-8" x="0" y="0">3</tspan><tspan x="10.27" y="0">1%</tspan></text>
    </g>
  </g>
</svg>