<?xml version="1.0" encoding="UTF-8"?>
<svg id="Calque_2" data-name="Calque 2" xmlns="http://www.w3.org/2000/svg" viewBox="0 0 186.46 27.36">
  <defs>
    <style>
      .cls-1 {
        fill: #fff;
        stroke: #b60000;
        stroke-width: 2px;
      }

      .cls-1, .cls-2, .cls-3 {
        stroke-miterlimit: 10;
      }

      .cls-4 {
        fill: #e5e5e5;
        font-family: MyriadPro-Regular, 'Myriad Pro';
        font-size: 8px;
      }

      .cls-5 {
        fill: #404040;
        font-family: FranklinGothic-Demi, 'Franklin Gothic Demi';
        font-size: 18px;
        font-weight: 300;
      }

      .cls-6 {
        fill: #b60000;
      }

      .cls-6, .cls-7, .cls-8 {
        stroke-width: 0px;
      }

      .cls-2 {
        fill: #0aafff;
        stroke: #0a8cff;
      }

      .cls-2, .cls-3 {
        stroke-width: .5px;
      }

      .cls-8 {
        fill: #2aebff;
      }

      .cls-3 {
        fill: #0acbff;
        stroke: #0a99ff;
      }

      .cls-9 {
        letter-spacing: -.01em;
      }
    </style>
  </defs>
  <g id="Calque_1-2" data-name="Calque 1">
    <g>
      <g>
        <g>
          <circle class="cls-1" cx="13.19" cy="14.17" r="12.19"/>
          <ellipse class="cls-7" cx="13.19" cy="16.03" rx="4.21" ry="4.96"/>
          <ellipse class="cls-7" cx="13.19" cy="12.61" rx="2.79" ry="3.42"/>
          <path class="cls-8" d="M13.19,11.21s.84,5.76.21,10.4c1.89-.11,5.95-3.22,4.22-8.16-2.24-2.32-4.43-2.23-4.43-2.23Z"/>
          <path class="cls-8" d="M13.19,11.21s-.84,5.76-.2,10.4c-1.89-.11-5.95-3.22-4.22-8.16,2.24-2.32,4.42-2.23,4.42-2.23Z"/>
          <path class="cls-7" d="M13.54,9.22s0-3.02,3.11-3.46c-1.09.85-2.13,2.28-2.27,3.76l-.84-.3Z"/>
          <path class="cls-7" d="M12.82,9.24s0-3.02-3.11-3.46c1.09.85,2.13,2.28,2.27,3.76l.84-.3Z"/>
          <path class="cls-7" d="M17.93,16.9s2.16.69-.53,5.27c1.35-.62,5.93-5.65.67-6.39l-.15,1.13Z"/>
          <path class="cls-7" d="M8.45,16.9s-2.16.69.53,5.27c-1.35-.62-5.93-5.65-.67-6.39l.15,1.13Z"/>
          <path class="cls-7" d="M17.62,13.44s2.39-1.06,2.21-3.2c-.65,1.07-.82,1.83-2.86,2.59l.65.61Z"/>
          <path class="cls-7" d="M8.76,13.44s-2.39-1.06-2.21-3.2c.65,1.07.82,1.83,2.86,2.59l-.65.61Z"/>
          <rect class="cls-6" x="12.39" y="2.01" width="1.72" height="24.32" transform="translate(12.6 33.56) rotate(-135)"/>
        </g>
        <g>
          <rect class="cls-2" x="34.44" y="8.3" width="53.39" height="13.15"/>
          <text class="cls-4" transform="translate(37.19 16.83)"><tspan x="0" y="0">malesuada</tspan></text>
          <polygon class="cls-3" points="143.62 14.87 148.51 8.55 143.62 2.23 81.57 2.23 81.57 14.87 143.62 14.87"/>
        </g>
      </g>
      <text class="cls-5" transform="translate(153.14 15)"><tspan class="cls-9" x="0" y="0">4</tspan><tspan x="10.35" y="0">1%</tspan></text>
    </g>
  </g>
</svg>