<?xml version="1.0" encoding="UTF-8"?>
<svg id="Calque_2" data-name="Calque 2" xmlns="http://www.w3.org/2000/svg" viewBox="0 0 34.54 30.78">
  <defs>
    <style>
      .cls-1 {
        fill: #ff6c00;
      }

      .cls-1, .cls-2 {
        stroke-width: 0px;
      }

      .cls-2 {
        fill: #1f8d9c;
      }
    </style>
  </defs>
  <g id="Calque_1-2" data-name="Calque 1">
    <g>
      <path class="cls-1" d="M34.54,12.5v-2.06c-6.11-1.25-2.31-6.23-2.31-6.23,0,0-.57-.57-1.54-1.5-6.11,3.76-6.07-2.71-6.07-2.71h-2.06c.4,7.12-5.75,3.2-5.75,3.2l-1.58,1.42c3.48,5.91-2.35,6.23-2.35,6.23l.08,2.06c5.46.08,2.31,5.91,2.31,5.91l1.54,1.42c5.1-4.17,5.87,2.31,5.87,2.31h2.27c.12-6.23,6.15-2.79,6.15-2.79l1.09-1.34c-2.99-4.73,2.35-5.91,2.35-5.91ZM23.72,17.04c-3.01,0-5.44-2.44-5.44-5.44s2.44-5.44,5.44-5.44,5.44,2.44,5.44,5.44-2.44,5.44-5.44,5.44Z"/>
      <path class="cls-2" d="M15.83,23.44v-1.51c-4.47-.92-1.69-4.56-1.69-4.56,0,0-.41-.41-1.12-1.09-4.47,2.75-4.44-1.98-4.44-1.98h-1.51c.3,5.21-4.2,2.34-4.2,2.34l-1.15,1.04c2.54,4.32-1.72,4.56-1.72,4.56l.06,1.51c3.99.06,1.69,4.32,1.69,4.32l1.12,1.04c3.73-3.05,4.29,1.69,4.29,1.69h1.66c.09-4.56,4.5-2.04,4.5-2.04l.8-.98c-2.19-3.46,1.72-4.32,1.72-4.32ZM7.91,26.76c-2.2,0-3.98-1.78-3.98-3.98s1.78-3.98,3.98-3.98,3.98,1.78,3.98,3.98-1.78,3.98-3.98,3.98Z"/>
    </g>
  </g>
</svg>