<?xml version="1.0" encoding="UTF-8"?>
<svg id="Calque_2" data-name="Calque 2" xmlns="http://www.w3.org/2000/svg" viewBox="0 0 168.03 99.63">
  <defs>
    <style>
      .cls-1 {
        fill: #a3a3a3;
      }

      .cls-1, .cls-2, .cls-3, .cls-4, .cls-5, .cls-6, .cls-7, .cls-8, .cls-9, .cls-10, .cls-11, .cls-12, .cls-13, .cls-14, .cls-15, .cls-16, .cls-17, .cls-18, .cls-19, .cls-20, .cls-21, .cls-22, .cls-23, .cls-24, .cls-25 {
        stroke-width: 0px;
      }

      .cls-2 {
        fill: #bdbdbd;
      }

      .cls-3 {
        fill: #28cdff;
      }

      .cls-4 {
        fill: #ff6c00;
      }

      .cls-5 {
        fill: #b2b2b2;
      }

      .cls-6 {
        fill: #00bbcf;
      }

      .cls-7 {
        fill: #28d746;
      }

      .cls-8 {
        fill: #15cdff;
      }

      .cls-26 {
        stroke: #000;
        stroke-miterlimit: 10;
        stroke-width: .1px;
      }

      .cls-26, .cls-14 {
        fill: #fff;
      }

      .cls-9 {
        fill: #1d3d41;
      }

      .cls-10 {
        fill: #9c9c9c;
      }

      .cls-11 {
        fill: #f4ce00;
      }

      .cls-12 {
        fill: #ffb8aa;
      }

      .cls-13 {
        fill: #737373;
      }

      .cls-15 {
        fill: #00b2bf;
      }

      .cls-16 {
        fill: #4c4c4c;
      }

      .cls-17 {
        fill: #15ff3c;
      }

      .cls-18 {
        fill: #4f4f4f;
      }

      .cls-19 {
        fill: #fcff2a;
      }

      .cls-20 {
        fill: #f4cf00;
      }

      .cls-21 {
        fill: #4aa5ff;
      }

      .cls-22 {
        fill: #00eef4;
      }

      .cls-23 {
        fill: #49cf00;
      }

      .cls-24 {
        fill: #3b00d4;
      }

      .cls-25 {
        fill: #fff755;
      }
    </style>
  </defs>
  <g id="Calque_1-2" data-name="Calque 1">
    <g>
      <g>
        <rect class="cls-26" x="13.6" y="6.27" width="37.42" height="34.18"/>
        <rect class="cls-20" x="13.6" y="6.27" width="37.42" height="5.46"/>
        <rect class="cls-13" x="16.94" y="14.66" width="3.24" height="3.24"/>
        <rect class="cls-13" x="45.15" y="14.66" width="3.24" height="3.24"/>
        <rect class="cls-13" x="40.65" y="14.66" width="3.24" height="3.24"/>
        <rect class="cls-13" x="35.85" y="14.66" width="3.24" height="3.24"/>
        <rect class="cls-13" x="30.94" y="14.66" width="3.24" height="3.24"/>
        <rect class="cls-13" x="26.44" y="14.66" width="3.24" height="3.24"/>
        <rect class="cls-13" x="21.84" y="14.66" width="3.24" height="3.24"/>
        <rect class="cls-13" x="16.94" y="19.65" width="3.24" height="3.24"/>
        <rect class="cls-13" x="45.15" y="19.65" width="3.24" height="3.24"/>
        <rect class="cls-13" x="40.65" y="19.65" width="3.24" height="3.24"/>
        <rect class="cls-4" x="35.85" y="19.65" width="3.24" height="3.24"/>
        <rect class="cls-13" x="30.94" y="19.65" width="3.24" height="3.24"/>
        <rect class="cls-13" x="26.44" y="19.65" width="3.24" height="3.24"/>
        <rect class="cls-13" x="21.84" y="19.65" width="3.24" height="3.24"/>
        <rect class="cls-13" x="16.94" y="25.16" width="3.24" height="3.24"/>
        <rect class="cls-13" x="45.15" y="25.16" width="3.24" height="3.24"/>
        <rect class="cls-13" x="40.65" y="25.16" width="3.24" height="3.24"/>
        <rect class="cls-13" x="35.85" y="25.16" width="3.24" height="3.24"/>
        <rect class="cls-13" x="30.94" y="25.16" width="3.24" height="3.24"/>
        <rect class="cls-13" x="26.44" y="25.16" width="3.24" height="3.24"/>
        <rect class="cls-13" x="21.84" y="25.16" width="3.24" height="3.24"/>
        <rect class="cls-13" x="16.94" y="30.01" width="3.24" height="3.24"/>
        <rect class="cls-13" x="45.15" y="30.01" width="3.24" height="3.24"/>
        <rect class="cls-13" x="40.65" y="30.01" width="3.24" height="3.24"/>
        <rect class="cls-13" x="35.85" y="30.01" width="3.24" height="3.24"/>
        <rect class="cls-13" x="30.94" y="30.01" width="3.24" height="3.24"/>
        <rect class="cls-13" x="26.44" y="30.01" width="3.24" height="3.24"/>
        <rect class="cls-13" x="21.84" y="30.01" width="3.24" height="3.24"/>
      </g>
      <g>
        <g>
          <polygon class="cls-16" points="81.59 99.63 117.67 99.63 109.63 95.72 109.61 87.73 144.62 87.73 144.62 23.36 54.67 23.36 54.67 87.73 90.57 87.73 90.57 95.66 81.59 99.63"/>
          <polygon class="cls-18" points="90.57 87.73 109.61 87.73 109.63 95.72 90.57 95.66 90.57 87.73"/>
          <rect class="cls-5" x="54.67" y="79.65" width="89.95" height="8.07"/>
          <rect class="cls-15" x="58.61" y="27.2" width="82.21" height="48.13"/>
        </g>
        <g>
          <rect class="cls-26" x="67.51" y="5.97" width="64.52" height="69.37"/>
          <rect class="cls-17" x="69.82" y="19.11" width="59.6" height="19.92"/>
          <rect class="cls-8" x="69.64" y="12.84" width="18.51" height="3.24"/>
          <rect class="cls-24" x="91.28" y="12.84" width="33.27" height="3.74"/>
          <rect class="cls-25" x="73.48" y="42.17" width="14.66" height="9.61"/>
          <rect class="cls-1" x="73.48" y="53.8" width="14.66" height="5.26"/>
          <rect class="cls-25" x="110.64" y="42.07" width="14.66" height="9.61"/>
          <rect class="cls-1" x="110.64" y="53.7" width="14.66" height="5.26"/>
          <rect class="cls-25" x="92.44" y="42.17" width="14.66" height="9.61"/>
          <rect class="cls-1" x="92.44" y="53.8" width="14.66" height="5.26"/>
          <rect class="cls-10" x="69.64" y="62.7" width="59.97" height="1.11"/>
          <rect class="cls-10" x="69.64" y="69.91" width="22.8" height="1.11"/>
          <rect class="cls-10" x="69.64" y="67.62" width="59.97" height="1.11"/>
          <rect class="cls-10" x="69.64" y="65.16" width="59.97" height="1.11"/>
        </g>
      </g>
      <g>
        <rect class="cls-26" x="121.26" y=".05" width="46.72" height="31.15"/>
        <rect class="cls-3" x="123.48" y="2.17" width="42.67" height="27"/>
        <rect class="cls-7" x="123.48" y="26.34" width="42.67" height="2.83"/>
        <polygon class="cls-21" points="123.48 26.34 131.27 15.62 134.91 18.35 143.61 7.74 159.28 26.34 123.48 26.34"/>
        <polygon class="cls-21" points="151.45 17.04 154.73 12.08 166.16 26.34 159.28 26.34 151.45 17.04"/>
        <polygon class="cls-14" points="130.24 17.04 134.1 17.75 131.27 15.62 130.24 17.04"/>
        <polygon class="cls-14" points="137.82 14.8 141.38 14.31 143.91 12.49 146.57 11.25 143.61 7.74 137.82 14.8"/>
        <polygon class="cls-14" points="158.8 17.16 156.75 16.68 155.14 17.75 151.45 17.04 154.73 12.08 158.8 17.16"/>
      </g>
      <g>
        <rect class="cls-26" x=".05" y="31.18" width="37.01" height="45.03"/>
        <rect class="cls-1" x="9.15" y="36.1" width="18" height="1.08"/>
        <rect class="cls-22" x="3.15" y="42.17" width="29.93" height="11.93"/>
        <rect class="cls-1" x="4.23" y="69.2" width="4.92" height="1.82"/>
        <rect class="cls-1" x="27.76" y="69.2" width="4.92" height="1.82"/>
        <rect class="cls-1" x="15.69" y="69.2" width="4.92" height="1.82"/>
        <circle class="cls-11" cx="6.69" cy="62.75" r="4.47"/>
        <circle class="cls-23" cx="30.22" cy="62.75" r="4.47"/>
        <circle class="cls-4" cx="18.15" cy="62.75" r="4.47"/>
      </g>
      <g>
        <rect class="cls-26" x="21.22" y="49.79" width="35.73" height="45.51"/>
        <rect class="cls-9" x="27.52" y="53.9" width="24" height="2.49"/>
        <rect class="cls-11" x="24.52" y="60.03" width="17.39" height="6.61"/>
        <rect class="cls-2" x="43.53" y="60.03" width="10.38" height="6.61"/>
        <rect class="cls-6" x="24.52" y="70.48" width="7.82" height="5.33"/>
        <rect class="cls-23" x="35.51" y="70.48" width="8.02" height="5.33"/>
        <rect class="cls-12" x="46.3" y="70.48" width="8.16" height="5.33"/>
        <rect class="cls-1" x="24.52" y="77.02" width="7.82" height="2.02"/>
        <rect class="cls-1" x="35.51" y="77.02" width="8.02" height="2.02"/>
        <rect class="cls-1" x="46.3" y="77.02" width="8.16" height="2.02"/>
        <rect class="cls-1" x="24.52" y="80.26" width="7.82" height=".94"/>
        <rect class="cls-1" x="35.51" y="80.26" width="8.02" height=".94"/>
        <rect class="cls-1" x="46.3" y="80.26" width="8.16" height=".94"/>
        <rect class="cls-19" x="24.52" y="84.91" width="5.39" height="4.38"/>
        <rect class="cls-12" x="48.45" y="84.91" width="5.39" height="4.38"/>
        <rect class="cls-23" x="40.84" y="84.91" width="5.39" height="4.38"/>
        <rect class="cls-6" x="32.34" y="84.91" width="5.39" height="4.38"/>
        <rect class="cls-1" x="24.52" y="90.84" width="5.39" height="1.01"/>
        <rect class="cls-1" x="48.45" y="90.94" width="5.39" height="1.01"/>
        <rect class="cls-1" x="40.84" y="90.94" width="5.39" height="1.01"/>
        <rect class="cls-1" x="32.34" y="90.94" width="5.39" height="1.01"/>
      </g>
    </g>
  </g>
</svg>