<?xml version="1.0" encoding="UTF-8"?>
<svg id="Calque_2" data-name="Calque 2" xmlns="http://www.w3.org/2000/svg" viewBox="0 0 166.9 95.12">
  <defs>
    <style>
      .cls-1 {
        stroke: #b60000;
      }

      .cls-1, .cls-2, .cls-3, .cls-4, .cls-5, .cls-6, .cls-7, .cls-8, .cls-9, .cls-10, .cls-11, .cls-12, .cls-13 {
        stroke-miterlimit: 10;
      }

      .cls-1, .cls-4, .cls-6, .cls-14, .cls-15 {
        fill: #fff;
      }

      .cls-1, .cls-8 {
        stroke-width: 2px;
      }

      .cls-16 {
        fill: #e99600;
      }

      .cls-16, .cls-17, .cls-18, .cls-19, .cls-20, .cls-21, .cls-22, .cls-23, .cls-24, .cls-14, .cls-25, .cls-26, .cls-27, .cls-28, .cls-29, .cls-30, .cls-31 {
        stroke-width: 0px;
      }

      .cls-17 {
        fill: #ff6c00;
      }

      .cls-2 {
        fill: #0a9bff;
      }

      .cls-2, .cls-6, .cls-7, .cls-13 {
        stroke: #000;
        stroke-width: .1px;
      }

      .cls-18 {
        fill: #b60000;
      }

      .cls-3, .cls-5, .cls-8, .cls-10, .cls-11, .cls-12 {
        fill: none;
      }

      .cls-3, .cls-5, .cls-8, .cls-11 {
        stroke: #fff;
      }

      .cls-4 {
        stroke: #9e9e9e;
      }

      .cls-5 {
        stroke-width: .75px;
      }

      .cls-20 {
        fill: #e9c400;
      }

      .cls-21 {
        fill: #9e9e9e;
      }

      .cls-7 {
        fill: #4affff;
      }

      .cls-9 {
        fill: #74f3ff;
        stroke: #74f3ff;
      }

      .cls-10 {
        stroke: #949494;
      }

      .cls-22 {
        fill: #f9cf51;
      }

      .cls-23 {
        fill: #faa818;
      }

      .cls-24 {
        fill: #2aebff;
      }

      .cls-11 {
        stroke-width: .5px;
      }

      .cls-25 {
        fill: #00c7ff;
      }

      .cls-26 {
        fill: #1f0095;
      }

      .cls-12 {
        stroke: #595959;
        stroke-width: 3px;
      }

      .cls-15 {
        font-family: MyriadPro-Regular, 'Myriad Pro';
        font-size: 10.85px;
      }

      .cls-27 {
        fill: #a2ffff;
      }

      .cls-28 {
        fill: #c9c9c9;
      }

      .cls-29 {
        fill: #ffcd00;
      }

      .cls-30 {
        fill: #475b62;
      }

      .cls-31 {
        fill: #ff780a;
      }

      .cls-13 {
        fill: #000f47;
      }
    </style>
  </defs>
  <g id="Calque_1-2" data-name="Calque 1">
    <g>
      <g>
        <g>
          <rect class="cls-25" x="7.85" y="31.26" width="50.1" height="29.23"/>
          <circle class="cls-8" cx="32.9" cy="43.55" r="6.56"/>
          <polygon class="cls-14" points="30.54 40.37 30.54 47.12 36.84 43.75 30.54 40.37"/>
          <rect class="cls-26" x="7.85" y="54.93" width="50.13" height="5.54"/>
          <polygon class="cls-14" points="10.93 55.99 10.93 59.4 14.11 57.69 10.93 55.99"/>
          <rect class="cls-14" x="16.38" y="57.06" width="37.83" height="1.28"/>
        </g>
        <g>
          <g>
            <path class="cls-22" d="M0,86.19s.2,3.72,5.42,3.72h16.32s.33.26,1.5-.78c1.5-.2,1.96-.66,3.59.81,2.22.3,4.63.1,4.83-2.64l.07-1.31"/>
            <path class="cls-22" d="M0,86.19s.2-3.72,5.42-3.72h16.32s.33-.26,1.5.78c1.5.2,1.96.66,3.59-.81,2.22-.3,4.63-.1,4.83,2.64l.07,1.31"/>
          </g>
          <rect class="cls-23" x="4" y="86.91" width="17.23" height="1.87" rx=".91" ry=".91"/>
          <rect class="cls-23" x="4" y="83.58" width="17.23" height="1.87" rx=".91" ry=".91"/>
          <rect class="cls-21" x="31.66" y="85.95" width="25.09" height=".92"/>
          <rect class="cls-28" x="31.66" y="85.12" width="25.09" height=".83"/>
        </g>
        <g>
          <g>
            <rect class="cls-7" x="129.54" y="35.56" width="27.15" height="29.18"/>
            <rect class="cls-14" x="130.86" y="37.63" width="13.13" height="1.88"/>
            <rect class="cls-14" x="145.7" y="37.63" width="6.03" height="1.88"/>
            <rect class="cls-14" x="153.05" y="37.63" width="2.39" height="1.88"/>
            <rect class="cls-14" x="130.86" y="47.01" width="1.28" height="1.88"/>
            <rect class="cls-14" x="133.17" y="47.01" width="8.21" height="1.88"/>
            <rect class="cls-14" x="145.17" y="51.55" width="3.19" height="1.88"/>
            <rect class="cls-14" x="130.86" y="55.93" width="10.52" height="1.88"/>
            <rect class="cls-14" x="149.12" y="51.55" width="6.33" height="1.88"/>
            <rect class="cls-14" x="145.19" y="42.48" width="10.33" height="1.88"/>
            <rect class="cls-14" x="149.93" y="60.5" width="5.58" height="1.88"/>
            <rect class="cls-14" x="135.63" y="60.5" width="13.13" height="1.88"/>
            <rect class="cls-14" x="130.86" y="60.5" width="3.59" height="1.88"/>
            <rect class="cls-14" x="142.36" y="55.93" width="13.13" height="1.88"/>
            <rect class="cls-14" x="130.86" y="51.55" width="13.13" height="1.88"/>
            <rect class="cls-14" x="142.56" y="47.01" width="13.13" height="1.88"/>
            <rect class="cls-14" x="130.86" y="42.48" width="13.13" height="1.88"/>
          </g>
          <g>
            <circle class="cls-1" cx="156.29" cy="66.53" r="9.61"/>
            <ellipse class="cls-19" cx="156.29" cy="67.99" rx="3.32" ry="3.91"/>
            <ellipse class="cls-19" cx="156.29" cy="65.3" rx="2.2" ry="2.7"/>
            <path class="cls-24" d="M156.29,64.19s.66,4.54.16,8.2c1.49-.09,4.69-2.54,3.33-6.44-1.77-1.83-3.49-1.76-3.49-1.76Z"/>
            <path class="cls-24" d="M156.29,64.19s-.66,4.54-.16,8.2c-1.49-.09-4.69-2.54-3.33-6.44,1.77-1.83,3.49-1.76,3.49-1.76Z"/>
            <path class="cls-19" d="M156.56,62.62s0-2.38,2.45-2.73c-.86.67-1.68,1.8-1.79,2.96l-.66-.24Z"/>
            <path class="cls-19" d="M156,62.64s0-2.38-2.45-2.73c.86.67,1.68,1.8,1.79,2.96l.66-.24Z"/>
            <path class="cls-19" d="M160.03,68.67s1.71.54-.41,4.15c1.07-.49,4.67-4.45.53-5.04l-.12.89Z"/>
            <path class="cls-19" d="M152.55,68.67s-1.71.54.41,4.15c-1.07-.49-4.67-4.45-.53-5.04l.12.89Z"/>
            <path class="cls-19" d="M159.78,65.95s1.89-.84,1.74-2.52c-.52.84-.65,1.44-2.26,2.04l.51.48Z"/>
            <path class="cls-19" d="M152.8,65.95s-1.89-.84-1.74-2.52c.52.84.65,1.44,2.26,2.04l-.51.48Z"/>
            <rect class="cls-18" x="155.66" y="56.94" width="1.36" height="19.17" transform="translate(219.84 224.11) rotate(-135)"/>
          </g>
        </g>
        <g>
          <rect class="cls-4" x="124.44" y="83.96" width="35.8" height="6.35"/>
          <rect class="cls-9" x="124.44" y="83.96" width="7.87" height="6.35"/>
          <polygon class="cls-14" points="126.27 85.24 126.27 89.03 130.47 87.14 126.27 85.24"/>
        </g>
        <g>
          <path class="cls-17" d="M144.77,16.17v-2.66c-7.87-1.62-2.97-8.03-2.97-8.03,0,0-.73-.73-1.98-1.93-7.87,4.85-7.82-3.49-7.82-3.49h-2.66c.52,9.17-7.4,4.12-7.4,4.12l-2.03,1.82c4.48,7.61-3.02,8.03-3.02,8.03l.1,2.66c7.04.1,2.97,7.61,2.97,7.61l1.98,1.82c6.57-5.37,7.56,2.97,7.56,2.97h2.92c.16-8.03,7.92-3.6,7.92-3.6l1.41-1.72c-3.86-6.1,3.02-7.61,3.02-7.61ZM130.82,22.01c-3.87,0-7.01-3.14-7.01-7.01s3.14-7.01,7.01-7.01,7.01,3.14,7.01,7.01-3.14,7.01-7.01,7.01Z"/>
          <g>
            <rect class="cls-13" x="68.47" y="15" width="48.41" height="80.07" rx="12" ry="12"/>
            <rect class="cls-27" x="74.22" y="21.42" width="37.96" height="61.7"/>
            <rect class="cls-2" x="85.4" y="85.48" width="14.55" height="7.23" rx="3.62" ry="3.62"/>
            <rect class="cls-20" x="62.05" y="58.61" width="6.26" height="21.11" transform="translate(68 -25.83) rotate(45)"/>
            <path class="cls-16" d="M74.85,63.92s-.24-2.4,2.03-3.31c-.89-.79-3.2-3.83-3.2-3.83,0,0-.63,2.52-3.25,2.71l4.42,4.42Z"/>
            <ellipse class="cls-12" cx="84.54" cy="49.8" rx="13.02" ry="12.7"/>
          </g>
          <path class="cls-29" d="M119.56,25.78v-1.94c-5.75-1.18-2.17-5.87-2.17-5.87,0,0-.53-.53-1.45-1.41-5.75,3.54-5.72-2.55-5.72-2.55h-1.94c.38,6.71-5.41,3.01-5.41,3.01l-1.49,1.33c3.28,5.56-2.21,5.87-2.21,5.87l.08,1.94c5.14.08,2.17,5.56,2.17,5.56l1.45,1.33c4.8-3.93,5.53,2.17,5.53,2.17h2.13c.11-5.87,5.79-2.63,5.79-2.63l1.03-1.26c-2.82-4.46,2.21-5.56,2.21-5.56ZM109.36,30.05c-2.83,0-5.13-2.29-5.13-5.13s2.29-5.13,5.13-5.13,5.13,2.29,5.13,5.13-2.29,5.13-5.13,5.13Z"/>
        </g>
        <g>
          <rect class="cls-30" x="22.62" y="1.44" width="51.12" height="9.89"/>
          <g>
            <path class="cls-5" d="M27.86,9.88l3.8-3.96s-.04-5.96-3.57-1.04"/>
            <path class="cls-5" d="M28.09,4.88c-3.53-4.91-3.57,1.04-3.57,1.04l3.88,3.94"/>
            <g>
              <polygon class="cls-14" points="27.78 5.09 28.39 5.09 28.08 5.44 27.78 5.09"/>
              <polyline class="cls-14" points="28.08 4.75 28.39 5.09 27.78 5.09"/>
            </g>
          </g>
          <circle class="cls-14" cx="38.34" cy="6.4" r="3.87"/>
          <text class="cls-15" transform="translate(44.98 9.08)"><tspan x="0" y="0">@</tspan></text>
          <circle class="cls-11" cx="57.81" cy="5.57" r="2.43"/>
          <line class="cls-5" x1="61.97" y1="9.9" x2="59.62" y2="7.25"/>
          <circle class="cls-11" cx="69.14" cy="6.6" r="3.31"/>
          <path class="cls-14" d="M69.14,6.6v-3.31s-3.03,0-3.31,3.31l3.31-.06"/>
          <line class="cls-10" x1="33.15" y1="1.44" x2="33.19" y2="11.34"/>
          <line class="cls-10" x1="54.12" y1="1.46" x2="54.17" y2="11.35"/>
          <line class="cls-10" x1="43.64" y1="1.44" x2="43.68" y2="11.34"/>
          <line class="cls-10" x1="64.12" y1="1.44" x2="64.16" y2="11.34"/>
        </g>
      </g>
      <g>
        <rect class="cls-6" x="99.44" y="69.91" width="34.88" height="5.83"/>
        <rect class="cls-31" x="127.55" y="69.91" width="6.77" height="5.83"/>
        <circle class="cls-3" cx="129.76" cy="72.19" r="1.28"/>
        <rect class="cls-14" x="131.71" y="72.23" width=".54" height="2.99" transform="translate(-.48 146.58) rotate(-58)"/>
      </g>
    </g>
  </g>
</svg>