<?xml version="1.0" encoding="UTF-8"?>
<svg id="Calque_2" data-name="Calque 2" xmlns="http://www.w3.org/2000/svg" viewBox="0 0 47.71 21.83">
  <defs>
    <style>
      .cls-1 {
        fill: none;
        stroke: #00005a;
        stroke-miterlimit: 10;
      }

      .cls-2 {
        fill: #004;
      }

      .cls-2, .cls-3, .cls-4 {
        stroke-width: 0px;
      }

      .cls-3 {
        fill: #00005a;
      }

      .cls-4 {
        fill: #0ad0b2;
        opacity: .33;
      }
    </style>
  </defs>
  <g id="Calque_1-2" data-name="Calque 1">
    <g>
      <path class="cls-2" d="M20.71,5.2s-11.97-.77-19.89-.23l.09,3.05s6.29.89,13.76.62C11.05,10.04,2.68,13.75.01,18.37c-.14,1.31,1.13,1.63,2.49,1.09,1.22-1.4,7.33-6.7,10.23-7.99,1.22-.07,8.61-.55,8.61-.55l-.62-5.71Z"/>
      <path class="cls-2" d="M27,5.2s11.97-.77,19.89-.23l-.09,3.05s-6.29.89-13.76.62c3.62,1.4,11.99,5.11,14.66,9.73.14,1.31-1.13,1.63-2.49,1.09-1.22-1.4-7.33-6.7-10.23-7.99-1.22-.07-8.61-.55-8.61-.55l.62-5.71Z"/>
      <path class="cls-4" d="M20.44,3.49s6.65,28.17-15.75,13.71C1.23,11.7-7.18-6.62,20.44,3.49Z"/>
      <path class="cls-4" d="M27.3,3.49s-6.65,28.17,15.75,13.71c3.46-5.5,11.88-23.82-15.75-13.71Z"/>
      <path class="cls-1" d="M20.44,3.49s6.65,28.17-15.75,13.71C1.23,11.7-7.18-6.62,20.44,3.49Z"/>
      <path class="cls-1" d="M27.3,3.49s-6.65,28.17,15.75,13.71c3.46-5.5,11.88-23.82-15.75-13.71Z"/>
      <path class="cls-3" d="M20.57,4.1s3.22,1.72,6.6,0c-.37,2.14-.79,7.37-.79,7.37,0,0-2.12-2.82-5.01,0-.04-1.52-.79-7.37-.79-7.37Z"/>
    </g>
  </g>
</svg>